<svg width="906" height="790" viewBox="0 0 906 790" fill="none" xmlns="http://www.w3.org/2000/svg">
<path d="M138 0C147.941 0 156 8.05888 156 18V613.902C156 623.844 164.059 631.902 174 631.902H304C313.941 631.902 322 639.961 322 649.902V772C322 781.941 313.941 790 304 790H18C8.05888 790 0 781.941 0 772V18C0 8.05889 8.05887 0 18 0H138Z" fill="white"/>
<path d="M777.241 790C767.3 790 759.241 781.941 759.241 772V176.098C759.241 166.156 751.182 158.098 741.241 158.098H688C678.059 158.098 670 150.039 670 140.098V18C670 8.05887 678.059 0 688 0H888C897.941 0 906 8.05888 906 18V772C906 781.941 897.941 790 888 790H777.241Z" fill="#4D35A5"/>
<path d="M386.664 494.469C404.337 494.469 418.664 480.142 418.664 462.469V370.219C418.664 352.546 404.337 338.219 386.664 338.219H342.266C324.593 338.219 310.266 352.546 310.266 370.219V462.469C310.266 480.142 324.593 494.469 342.266 494.469H386.664ZM497.766 462.469C497.766 480.142 512.093 494.469 529.766 494.469H568.305C585.978 494.469 600.305 480.142 600.305 462.469V370.219C600.305 352.546 585.978 338.219 568.305 338.219H529.766C512.093 338.219 497.766 352.546 497.766 370.219V462.469ZM270 573.57C252.327 573.57 238 559.243 238 541.57V296C238 278.327 252.327 264 270 264H645.352C663.065 264 677.408 278.388 677.352 296.101L676.577 541.671C676.522 559.305 662.211 573.57 644.577 573.57H270Z" fill="#4D35A5"/>
</svg>
