<svg width="437" height="395" viewBox="0 0 437 395" fill="none" xmlns="http://www.w3.org/2000/svg">
<path d="M69 0C73.9706 0 78 4.02944 78 9V306.951C78 311.922 82.0294 315.951 87 315.951H152C156.971 315.951 161 319.981 161 324.951V386C161 390.971 156.971 395 152 395H9C4.02944 395 0 390.971 0 386V9.00001C0 4.02944 4.02944 0 9 0H69Z" fill="white"/>
<path d="M372.62 395C367.65 395 363.62 390.971 363.62 386V88.0488C363.62 83.0782 359.591 79.0488 354.62 79.0488H328C323.029 79.0488 319 75.0194 319 70.0488V9C319 4.02943 323.029 0 328 0H428C432.971 0 437 4.02944 437 9V386C437 390.971 432.971 395 428 395H372.62Z" fill="#4D35A5"/>
<path d="M193.332 247.234C202.169 247.234 209.332 240.071 209.332 231.234V185.109C209.332 176.273 202.169 169.109 193.332 169.109H171.133C162.296 169.109 155.133 176.273 155.133 185.109V231.234C155.133 240.071 162.296 247.234 171.133 247.234H193.332ZM248.883 231.234C248.883 240.071 256.046 247.234 264.883 247.234H284.152C292.989 247.234 300.152 240.071 300.152 231.234V185.109C300.152 176.273 292.989 169.109 284.152 169.109H264.883C256.046 169.109 248.883 176.273 248.883 185.109V231.234ZM135 286.785C126.163 286.785 119 279.622 119 270.785V148C119 139.163 126.163 132 135 132H322.676C331.532 132 338.704 139.194 338.676 148.05L338.289 270.836C338.261 279.652 331.106 286.785 322.289 286.785H135Z" fill="#4D35A5"/>
</svg>
