<svg width="1636" height="395" viewBox="0 0 1636 395" fill="none" xmlns="http://www.w3.org/2000/svg">
<path d="M69 0C73.9706 0 78 4.02944 78 9V306.951C78 311.922 82.0294 315.951 87 315.951H152C156.971 315.951 161 319.981 161 324.951V386C161 390.971 156.971 395 152 395H9C4.02944 395 0 390.971 0 386V9.00001C0 4.02944 4.02944 0 9 0H69Z" fill="#D0D0D0"/>
<path d="M372.62 395C367.65 395 363.62 390.971 363.62 386V88.0488C363.62 83.0782 359.591 79.0488 354.62 79.0488H328C323.029 79.0488 319 75.0194 319 70.0488V9C319 4.02943 323.029 0 328 0H428C432.971 0 437 4.02944 437 9V386C437 390.971 432.971 395 428 395H372.62Z" fill="#4D35A5"/>
<path d="M193.332 247.234C202.169 247.234 209.332 240.071 209.332 231.234V185.109C209.332 176.273 202.169 169.109 193.332 169.109H171.133C162.296 169.109 155.133 176.273 155.133 185.109V231.234C155.133 240.071 162.296 247.234 171.133 247.234H193.332ZM248.883 231.234C248.883 240.071 256.046 247.234 264.883 247.234H284.152C292.989 247.234 300.152 240.071 300.152 231.234V185.109C300.152 176.273 292.989 169.109 284.152 169.109H264.883C256.046 169.109 248.883 176.273 248.883 185.109V231.234ZM135 286.785C126.163 286.785 119 279.622 119 270.785V148C119 139.163 126.163 132 135 132H322.676C331.532 132 338.704 139.194 338.676 148.05L338.289 270.836C338.261 279.652 331.106 286.785 322.289 286.785H135Z" fill="#4D35A5"/>
<path d="M1069.84 179L1118.98 70.5H1134.33L1183.62 179H1167.34L1123.48 79.18H1129.68L1085.81 179H1069.84ZM1090.77 151.875L1094.96 139.475H1156.03L1160.52 151.875H1090.77ZM1199.8 179V70.5H1212.51L1284.28 159.625H1277.61V70.5H1293.11V179H1280.4L1208.64 89.875H1215.3V179H1199.8ZM1357.21 180.24C1348.94 180.24 1341.03 179 1333.49 176.52C1325.95 173.937 1320.01 170.63 1315.67 166.6L1321.4 154.51C1325.53 158.127 1330.8 161.123 1337.21 163.5C1343.62 165.877 1350.28 167.065 1357.21 167.065C1363.51 167.065 1368.62 166.342 1372.55 164.895C1376.48 163.448 1379.37 161.485 1381.23 159.005C1383.09 156.422 1384.02 153.528 1384.02 150.325C1384.02 146.605 1382.78 143.608 1380.3 141.335C1377.92 139.062 1374.77 137.253 1370.85 135.91C1367.02 134.463 1362.79 133.223 1358.14 132.19C1353.49 131.157 1348.78 129.968 1344.03 128.625C1339.38 127.178 1335.09 125.37 1331.17 123.2C1327.34 121.03 1324.24 118.137 1321.87 114.52C1319.49 110.8 1318.3 106.047 1318.3 100.26C1318.3 94.68 1319.75 89.565 1322.64 84.915C1325.64 80.1617 1330.18 76.39 1336.28 73.6C1342.48 70.7067 1350.33 69.26 1359.84 69.26C1366.14 69.26 1372.4 70.0867 1378.6 71.74C1384.8 73.3933 1390.17 75.77 1394.72 78.87L1389.6 91.27C1384.95 88.17 1380.04 85.9483 1374.88 84.605C1369.71 83.1583 1364.7 82.435 1359.84 82.435C1353.74 82.435 1348.73 83.21 1344.81 84.76C1340.88 86.31 1337.99 88.3767 1336.13 90.96C1334.37 93.5433 1333.49 96.4367 1333.49 99.64C1333.49 103.463 1334.68 106.512 1337.06 108.785C1339.54 111.058 1342.69 112.867 1346.51 114.21C1350.44 115.553 1354.73 116.793 1359.38 117.93C1364.03 118.963 1368.68 120.152 1373.33 121.495C1378.08 122.838 1382.37 124.595 1386.19 126.765C1390.12 128.935 1393.27 131.828 1395.65 135.445C1398.02 139.062 1399.21 143.712 1399.21 149.395C1399.21 154.872 1397.71 159.987 1394.72 164.74C1391.72 169.39 1387.07 173.162 1380.77 176.055C1374.57 178.845 1366.71 180.24 1357.21 180.24ZM1435.96 117.31H1491.76V130.485H1435.96V117.31ZM1437.36 165.515H1500.6V179H1421.86V70.5H1498.43V83.985H1437.36V165.515ZM1525.69 179V70.5H1538.4L1610.17 159.625H1603.5V70.5H1619V179H1606.29L1534.53 89.875H1541.19V179H1525.69Z" fill="#D0D0D0"/>
<path d="M993.028 199C983.22 199 973.993 196.913 965.348 192.739C956.87 188.566 950.054 182.626 944.9 174.921L955.623 162.881C960.444 169.623 966.013 174.76 972.331 178.292C978.648 181.823 985.63 183.589 993.278 183.589C1014.89 183.589 1025.7 171.229 1025.7 146.507V44.4108H961.857V29H1043.9V145.785C1043.9 163.603 1039.58 176.927 1030.93 185.756C1022.45 194.585 1009.82 199 993.028 199Z" fill="#D0D0D0"/>
<path d="M691.432 259.819L667.87 343H658.588L637.644 272.076L616.224 343L607.18 343.119L584.094 259.819H593.019L612.059 332.766L633.36 259.819H642.642L663.348 332.766L682.507 259.819H691.432ZM771.29 307.181C771.29 310.037 771.211 312.219 771.052 313.726H717.145C717.383 318.645 718.573 322.849 720.715 326.34C722.857 329.831 725.674 332.488 729.164 334.313C732.655 336.058 736.463 336.931 740.588 336.931C745.983 336.931 750.505 335.622 754.154 333.004C757.883 330.386 760.342 326.856 761.532 322.413H770.338C768.752 328.76 765.34 333.956 760.104 338.002C754.948 341.969 748.442 343.952 740.588 343.952C734.48 343.952 729.006 342.603 724.166 339.906C719.327 337.129 715.519 333.242 712.742 328.244C710.045 323.167 708.696 317.256 708.696 310.513C708.696 303.77 710.045 297.859 712.742 292.782C715.44 287.705 719.208 283.817 724.047 281.12C728.887 278.423 734.4 277.074 740.588 277.074C746.776 277.074 752.171 278.423 756.772 281.12C761.453 283.817 765.023 287.467 767.482 292.068C770.021 296.59 771.29 301.628 771.29 307.181ZM762.841 306.943C762.921 302.104 761.929 297.978 759.866 294.567C757.883 291.156 755.146 288.577 751.655 286.832C748.165 285.087 744.357 284.214 740.231 284.214C734.043 284.214 728.768 286.197 724.404 290.164C720.041 294.131 717.621 299.724 717.145 306.943H762.841ZM803.072 292.425C805.214 287.903 808.506 284.214 812.949 281.358C817.471 278.502 822.786 277.074 828.895 277.074C834.845 277.074 840.16 278.462 844.841 281.239C849.521 283.936 853.171 287.824 855.789 292.901C858.486 297.899 859.835 303.73 859.835 310.394C859.835 317.058 858.486 322.929 855.789 328.006C853.171 333.083 849.482 337.01 844.722 339.787C840.041 342.564 834.765 343.952 828.895 343.952C822.707 343.952 817.352 342.564 812.83 339.787C808.387 336.931 805.134 333.242 803.072 328.72V343H794.861V254.94H803.072V292.425ZM851.386 310.394C851.386 304.999 850.315 300.358 848.173 296.471C846.11 292.504 843.254 289.49 839.605 287.427C835.955 285.364 831.83 284.333 827.229 284.333C822.786 284.333 818.7 285.404 814.972 287.546C811.322 289.688 808.427 292.742 806.285 296.709C804.143 300.676 803.072 305.277 803.072 310.513C803.072 315.749 804.143 320.35 806.285 324.317C808.427 328.284 811.322 331.338 814.972 333.48C818.7 335.622 822.786 336.693 827.229 336.693C831.83 336.693 835.955 335.662 839.605 333.599C843.254 331.457 846.11 328.403 848.173 324.436C850.315 320.39 851.386 315.709 851.386 310.394Z" fill="#D0D0D0"/>
<path d="M931.153 259.819C940.356 259.819 948.249 261.485 954.834 264.817C961.419 268.149 966.456 272.949 969.947 279.216C973.438 285.483 975.183 292.941 975.183 301.588C975.183 310.156 973.438 317.574 969.947 323.841C966.456 330.029 961.419 334.789 954.834 338.121C948.249 341.374 940.356 343 931.153 343H906.52V259.819H931.153ZM931.153 336.098C942.736 336.098 951.542 333.083 957.571 327.054C963.68 320.945 966.734 312.457 966.734 301.588C966.734 290.64 963.68 282.112 957.571 276.003C951.542 269.815 942.736 266.721 931.153 266.721H914.85V336.098H931.153ZM1057.66 307.181C1057.66 310.037 1057.58 312.219 1057.42 313.726H1003.51C1003.75 318.645 1004.94 322.849 1007.08 326.34C1009.22 329.831 1012.04 332.488 1015.53 334.313C1019.02 336.058 1022.83 336.931 1026.95 336.931C1032.35 336.931 1036.87 335.622 1040.52 333.004C1044.25 330.386 1046.71 326.856 1047.9 322.413H1056.7C1055.12 328.76 1051.71 333.956 1046.47 338.002C1041.31 341.969 1034.81 343.952 1026.95 343.952C1020.85 343.952 1015.37 342.603 1010.53 339.906C1005.69 337.129 1001.89 333.242 999.109 328.244C996.411 323.167 995.063 317.256 995.063 310.513C995.063 303.77 996.411 297.859 999.109 292.782C1001.81 287.705 1005.57 283.817 1010.41 281.12C1015.25 278.423 1020.77 277.074 1026.95 277.074C1033.14 277.074 1038.54 278.423 1043.14 281.12C1047.82 283.817 1051.39 287.467 1053.85 292.068C1056.39 296.59 1057.66 301.628 1057.66 307.181ZM1049.21 306.943C1049.29 302.104 1048.3 297.978 1046.23 294.567C1044.25 291.156 1041.51 288.577 1038.02 286.832C1034.53 285.087 1030.72 284.214 1026.6 284.214C1020.41 284.214 1015.13 286.197 1010.77 290.164C1006.41 294.131 1003.99 299.724 1003.51 306.943H1049.21ZM1104.31 334.908L1126.21 278.026H1135.01L1108.95 343H1099.55L1073.49 278.026H1082.42L1104.31 334.908ZM1213.42 307.181C1213.42 310.037 1213.34 312.219 1213.18 313.726H1159.28C1159.51 318.645 1160.7 322.849 1162.85 326.34C1164.99 329.831 1167.8 332.488 1171.3 334.313C1174.79 336.058 1178.59 336.931 1182.72 336.931C1188.11 336.931 1192.64 335.622 1196.29 333.004C1200.01 330.386 1202.47 326.856 1203.66 322.413H1212.47C1210.88 328.76 1207.47 333.956 1202.24 338.002C1197.08 341.969 1190.57 343.952 1182.72 343.952C1176.61 343.952 1171.14 342.603 1166.3 339.906C1161.46 337.129 1157.65 333.242 1154.87 328.244C1152.18 323.167 1150.83 317.256 1150.83 310.513C1150.83 303.77 1152.18 297.859 1154.87 292.782C1157.57 287.705 1161.34 283.817 1166.18 281.12C1171.02 278.423 1176.53 277.074 1182.72 277.074C1188.91 277.074 1194.3 278.423 1198.9 281.12C1203.58 283.817 1207.15 287.467 1209.61 292.068C1212.15 296.59 1213.42 301.628 1213.42 307.181ZM1204.97 306.943C1205.05 302.104 1204.06 297.978 1202 294.567C1200.01 291.156 1197.28 288.577 1193.79 286.832C1190.3 285.087 1186.49 284.214 1182.36 284.214C1176.17 284.214 1170.9 286.197 1166.54 290.164C1162.17 294.131 1159.75 299.724 1159.28 306.943H1204.97ZM1245.32 254.94V343H1236.99V254.94H1245.32ZM1300.96 343.952C1294.85 343.952 1289.33 342.603 1284.41 339.906C1279.58 337.129 1275.73 333.242 1272.87 328.244C1270.1 323.167 1268.71 317.256 1268.71 310.513C1268.71 303.77 1270.13 297.899 1272.99 292.901C1275.85 287.824 1279.73 283.936 1284.65 281.239C1289.57 278.462 1295.09 277.074 1301.19 277.074C1307.3 277.074 1312.82 278.462 1317.73 281.239C1322.73 283.936 1326.62 287.824 1329.4 292.901C1332.25 297.899 1333.68 303.77 1333.68 310.513C1333.68 317.177 1332.25 323.048 1329.4 328.125C1326.54 333.202 1322.61 337.129 1317.62 339.906C1312.62 342.603 1307.06 343.952 1300.96 343.952ZM1300.96 336.693C1305.24 336.693 1309.21 335.741 1312.86 333.837C1316.51 331.854 1319.44 328.918 1321.66 325.031C1323.96 321.064 1325.11 316.225 1325.11 310.513C1325.11 304.801 1324 300.001 1321.78 296.114C1319.56 292.147 1316.62 289.212 1312.97 287.308C1309.33 285.325 1305.36 284.333 1301.07 284.333C1296.79 284.333 1292.82 285.325 1289.17 287.308C1285.53 289.212 1282.59 292.147 1280.37 296.114C1278.23 300.001 1277.16 304.801 1277.16 310.513C1277.16 316.225 1278.23 321.064 1280.37 325.031C1282.59 328.918 1285.49 331.854 1289.06 333.837C1292.71 335.741 1296.67 336.693 1300.96 336.693ZM1365.41 292.306C1367.47 287.943 1370.72 284.333 1375.16 281.477C1379.69 278.542 1385.04 277.074 1391.23 277.074C1397.1 277.074 1402.38 278.462 1407.06 281.239C1411.82 283.936 1415.51 287.824 1418.12 292.901C1420.82 297.899 1422.17 303.73 1422.17 310.394C1422.17 317.058 1420.82 322.929 1418.12 328.006C1415.51 333.083 1411.82 337.01 1407.06 339.787C1402.38 342.564 1397.1 343.952 1391.23 343.952C1385.12 343.952 1379.81 342.524 1375.28 339.668C1370.76 336.733 1367.47 333.083 1365.41 328.72V373.702H1357.2V278.026H1365.41V292.306ZM1413.72 310.394C1413.72 304.999 1412.65 300.358 1410.51 296.471C1408.44 292.504 1405.59 289.49 1401.94 287.427C1398.29 285.364 1394.16 284.333 1389.56 284.333C1385.12 284.333 1381.03 285.404 1377.31 287.546C1373.66 289.688 1370.76 292.742 1368.62 296.709C1366.48 300.676 1365.41 305.277 1365.41 310.513C1365.41 315.749 1366.48 320.35 1368.62 324.317C1370.76 328.284 1373.66 331.338 1377.31 333.48C1381.03 335.622 1385.12 336.693 1389.56 336.693C1394.16 336.693 1398.29 335.662 1401.94 333.599C1405.59 331.457 1408.44 328.403 1410.51 324.436C1412.65 320.39 1413.72 315.709 1413.72 310.394ZM1504.61 307.181C1504.61 310.037 1504.53 312.219 1504.38 313.726H1450.47C1450.71 318.645 1451.9 322.849 1454.04 326.34C1456.18 329.831 1459 332.488 1462.49 334.313C1465.98 336.058 1469.79 336.931 1473.91 336.931C1479.31 336.931 1483.83 335.622 1487.48 333.004C1491.21 330.386 1493.67 326.856 1494.86 322.413H1503.66C1502.07 328.76 1498.66 333.956 1493.43 338.002C1488.27 341.969 1481.77 343.952 1473.91 343.952C1467.8 343.952 1462.33 342.603 1457.49 339.906C1452.65 337.129 1448.84 333.242 1446.07 328.244C1443.37 323.167 1442.02 317.256 1442.02 310.513C1442.02 303.77 1443.37 297.859 1446.07 292.782C1448.76 287.705 1452.53 283.817 1457.37 281.12C1462.21 278.423 1467.72 277.074 1473.91 277.074C1480.1 277.074 1485.49 278.423 1490.1 281.12C1494.78 283.817 1498.35 287.467 1500.81 292.068C1503.34 296.59 1504.61 301.628 1504.61 307.181ZM1496.16 306.943C1496.24 302.104 1495.25 297.978 1493.19 294.567C1491.21 291.156 1488.47 288.577 1484.98 286.832C1481.49 285.087 1477.68 284.214 1473.55 284.214C1467.37 284.214 1462.09 286.197 1457.73 290.164C1453.36 294.131 1450.94 299.724 1450.47 306.943H1496.16ZM1536.51 289.569C1538.34 285.523 1541.11 282.389 1544.84 280.168C1548.65 277.947 1553.29 276.836 1558.77 276.836V285.523H1556.51C1550.48 285.523 1545.64 287.149 1541.99 290.402C1538.34 293.655 1536.51 299.089 1536.51 306.705V343H1528.18V278.026H1536.51V289.569Z" fill="#D0D0D0"/>
<path d="M502 199C500.895 199 500 198.105 500 197V15C500 11.134 503.134 8 507 8H524.263C528.129 8 531.263 11.134 531.263 15V160.983C531.263 162.087 532.159 162.983 533.263 162.983H592C595.866 162.983 599 166.117 599 169.983V192C599 195.866 595.866 199 592 199H502Z" fill="#4D35A5"/>
<path d="M839.649 198C828.228 198 817.632 196.148 807.862 192.443C798.229 188.739 789.835 183.525 782.679 176.802C775.661 170.08 770.157 162.191 766.166 153.135C762.313 144.08 760.386 134.202 760.386 123.5C760.386 112.798 762.313 102.92 766.166 93.8647C770.157 84.8094 775.73 76.9204 782.885 70.1975C790.041 63.4747 798.435 58.261 808.068 54.5566C817.701 50.8522 828.159 49 839.443 49C850.864 49 861.323 50.8522 870.818 54.5566C880.45 58.261 888.776 63.4747 895.794 70.1975C902.949 76.9204 908.522 84.8094 912.513 93.8647C916.504 102.783 918.499 112.661 918.499 123.5C918.499 134.202 916.504 144.149 912.513 153.341C908.522 162.396 902.949 170.285 895.794 177.008C888.776 183.594 880.45 188.739 870.818 192.443C861.323 196.148 850.933 198 839.649 198ZM839.443 169.599C845.91 169.599 851.828 168.502 857.194 166.307C862.699 164.111 867.515 160.956 871.643 156.84C875.772 152.724 878.937 147.853 881.138 142.228C883.478 136.603 884.647 130.36 884.647 123.5C884.647 116.64 883.478 110.397 881.138 104.772C878.937 99.1469 875.772 94.2762 871.643 90.1602C867.653 86.0442 862.905 82.8886 857.401 80.6934C851.896 78.4982 845.91 77.4006 839.443 77.4006C832.975 77.4006 826.989 78.4982 821.485 80.6934C816.118 82.8886 811.371 86.0442 807.242 90.1602C803.114 94.2762 799.88 99.1469 797.541 104.772C795.339 110.397 794.238 116.64 794.238 123.5C794.238 130.223 795.339 136.465 797.541 142.228C799.88 147.853 803.045 152.724 807.036 156.84C811.164 160.956 815.98 164.111 821.485 166.307C826.989 168.502 832.975 169.599 839.443 169.599Z" fill="#4D35A5"/>
<path d="M658.233 109.975C658.233 111.08 659.128 111.975 660.233 111.975H722.317C723.974 111.975 725.317 113.318 725.317 114.975V134.906C725.317 136.563 723.974 137.906 722.317 137.906H660.233C659.128 137.906 658.233 138.801 658.233 139.906V169.246C658.233 170.35 659.128 171.246 660.233 171.246H733.876C735.533 171.246 736.876 172.589 736.876 174.246V195C736.876 196.657 735.533 198 733.876 198H627C625.895 198 625 197.105 625 196V55.9392C625 54.8346 625.895 53.9392 627 53.9392H731.193C732.85 53.9392 734.193 55.2824 734.193 56.9392V77.6934C734.193 79.3502 732.85 80.6934 731.193 80.6934H660.233C659.128 80.6934 658.233 81.5888 658.233 82.6933V109.975Z" fill="#4D35A5"/>
</svg>
