<svg width="1149" height="395" viewBox="0 0 1149 395" fill="none" xmlns="http://www.w3.org/2000/svg">
<path d="M69 0C73.9706 0 78 4.02944 78 9V306.951C78 311.922 82.0294 315.951 87 315.951H152C156.971 315.951 161 319.981 161 324.951V386C161 390.971 156.971 395 152 395H9C4.02944 395 0 390.971 0 386V9.00001C0 4.02944 4.02944 0 9 0H69Z" fill="white"/>
<path d="M372.62 395C367.65 395 363.62 390.971 363.62 386V88.0488C363.62 83.0782 359.591 79.0488 354.62 79.0488H328C323.029 79.0488 319 75.0193 319 70.0488V9C319 4.02945 323.029 0 328 0H428C432.971 0 437 4.02945 437 9V386C437 390.971 432.971 395 428 395H372.62Z" fill="#7C3AED"/>
<path d="M193.332 247.234C202.169 247.234 209.332 240.071 209.332 231.234V185.109C209.332 176.273 202.169 169.109 193.332 169.109H171.133C162.296 169.109 155.133 176.273 155.133 185.109V231.234C155.133 240.071 162.296 247.234 171.133 247.234H193.332ZM248.883 231.234C248.883 240.071 256.046 247.234 264.883 247.234H284.152C292.989 247.234 300.152 240.071 300.152 231.234V185.109C300.152 176.273 292.989 169.109 284.152 169.109H264.883C256.046 169.109 248.883 176.273 248.883 185.109V231.234ZM135 286.785C126.163 286.785 119 279.622 119 270.785V148C119 139.163 126.163 132 135 132H322.676C331.532 132 338.704 139.194 338.676 148.05L338.289 270.836C338.261 279.652 331.106 286.785 322.289 286.785H135Z" fill="#7C3AED"/>
<path d="M601.168 290.381L585.13 347H578.812L564.556 298.724L549.976 347L543.82 347.081L528.106 290.381H534.181L547.141 340.034L561.64 290.381H567.958L582.052 340.034L595.093 290.381H601.168ZM649.855 322.619C649.855 324.563 649.801 326.048 649.693 327.074H613C613.162 330.422 613.972 333.284 615.43 335.66C616.888 338.036 618.805 339.845 621.181 341.087C623.557 342.275 626.149 342.869 628.957 342.869C632.629 342.869 635.707 341.978 638.191 340.196C640.729 338.414 642.403 336.011 643.213 332.987H649.207C648.127 337.307 645.805 340.844 642.241 343.598C638.731 346.298 634.303 347.648 628.957 347.648C624.799 347.648 621.073 346.73 617.779 344.894C614.485 343.004 611.893 340.358 610.003 336.956C608.167 333.5 607.249 329.477 607.249 324.887C607.249 320.297 608.167 316.274 610.003 312.818C611.839 309.362 614.404 306.716 617.698 304.88C620.992 303.044 624.745 302.126 628.957 302.126C633.169 302.126 636.841 303.044 639.973 304.88C643.159 306.716 645.589 309.2 647.263 312.332C648.991 315.41 649.855 318.839 649.855 322.619ZM644.104 322.457C644.158 319.163 643.483 316.355 642.079 314.033C640.729 311.711 638.866 309.956 636.49 308.768C634.114 307.58 631.522 306.986 628.714 306.986C624.502 306.986 620.911 308.336 617.941 311.036C614.971 313.736 613.324 317.543 613 322.457H644.104ZM665.818 312.575C667.276 309.497 669.517 306.986 672.541 305.042C675.619 303.098 679.237 302.126 683.395 302.126C687.445 302.126 691.063 303.071 694.249 304.961C697.435 306.797 699.919 309.443 701.701 312.899C703.537 316.301 704.455 320.27 704.455 324.806C704.455 329.342 703.537 333.338 701.701 336.794C699.919 340.25 697.408 342.923 694.168 344.813C690.982 346.703 687.391 347.648 683.395 347.648C679.183 347.648 675.538 346.703 672.46 344.813C669.436 342.869 667.222 340.358 665.818 337.28V347H660.229V287.06H665.818V312.575ZM698.704 324.806C698.704 321.134 697.975 317.975 696.517 315.329C695.113 312.629 693.169 310.577 690.685 309.173C688.201 307.769 685.393 307.067 682.261 307.067C679.237 307.067 676.456 307.796 673.918 309.254C671.434 310.712 669.463 312.791 668.005 315.491C666.547 318.191 665.818 321.323 665.818 324.887C665.818 328.451 666.547 331.583 668.005 334.283C669.463 336.983 671.434 339.062 673.918 340.52C676.456 341.978 679.237 342.707 682.261 342.707C685.393 342.707 688.201 342.005 690.685 340.601C693.169 339.143 695.113 337.064 696.517 334.364C697.975 331.61 698.704 328.424 698.704 324.806ZM753.883 290.381C760.147 290.381 765.52 291.515 770.002 293.783C774.484 296.051 777.913 299.318 780.289 303.584C782.665 307.85 783.853 312.926 783.853 318.812C783.853 324.644 782.665 329.693 780.289 333.959C777.913 338.171 774.484 341.411 770.002 343.679C765.52 345.893 760.147 347 753.883 347H737.116V290.381H753.883ZM753.883 342.302C761.767 342.302 767.761 340.25 771.865 336.146C776.023 331.988 778.102 326.21 778.102 318.812C778.102 311.36 776.023 305.555 771.865 301.397C767.761 297.185 761.767 295.079 753.883 295.079H742.786V342.302H753.883ZM834.32 322.619C834.32 324.563 834.266 326.048 834.158 327.074H797.465C797.627 330.422 798.437 333.284 799.895 335.66C801.353 338.036 803.27 339.845 805.646 341.087C808.022 342.275 810.614 342.869 813.422 342.869C817.094 342.869 820.172 341.978 822.656 340.196C825.194 338.414 826.868 336.011 827.678 332.987H833.672C832.592 337.307 830.27 340.844 826.706 343.598C823.196 346.298 818.768 347.648 813.422 347.648C809.264 347.648 805.538 346.73 802.244 344.894C798.95 343.004 796.358 340.358 794.468 336.956C792.632 333.5 791.714 329.477 791.714 324.887C791.714 320.297 792.632 316.274 794.468 312.818C796.304 309.362 798.869 306.716 802.163 304.88C805.457 303.044 809.21 302.126 813.422 302.126C817.634 302.126 821.306 303.044 824.438 304.88C827.624 306.716 830.054 309.2 831.728 312.332C833.456 315.41 834.32 318.839 834.32 322.619ZM828.569 322.457C828.623 319.163 827.948 316.355 826.544 314.033C825.194 311.711 823.331 309.956 820.955 308.768C818.579 307.58 815.987 306.986 813.179 306.986C808.967 306.986 805.376 308.336 802.406 311.036C799.436 313.736 797.789 317.543 797.465 322.457H828.569ZM860.408 341.492L875.312 302.774H881.306L863.567 347H857.168L839.429 302.774H845.504L860.408 341.492ZM929.005 322.619C929.005 324.563 928.951 326.048 928.843 327.074H892.15C892.312 330.422 893.122 333.284 894.58 335.66C896.038 338.036 897.955 339.845 900.331 341.087C902.707 342.275 905.299 342.869 908.107 342.869C911.779 342.869 914.857 341.978 917.341 340.196C919.879 338.414 921.553 336.011 922.363 332.987H928.357C927.277 337.307 924.955 340.844 921.391 343.598C917.881 346.298 913.453 347.648 908.107 347.648C903.949 347.648 900.223 346.73 896.929 344.894C893.635 343.004 891.043 340.358 889.153 336.956C887.317 333.5 886.399 329.477 886.399 324.887C886.399 320.297 887.317 316.274 889.153 312.818C890.989 309.362 893.554 306.716 896.848 304.88C900.142 303.044 903.895 302.126 908.107 302.126C912.319 302.126 915.991 303.044 919.123 304.88C922.309 306.716 924.739 309.2 926.413 312.332C928.141 315.41 929.005 318.839 929.005 322.619ZM923.254 322.457C923.308 319.163 922.633 316.355 921.229 314.033C919.879 311.711 918.016 309.956 915.64 308.768C913.264 307.58 910.672 306.986 907.864 306.986C903.652 306.986 900.061 308.336 897.091 311.036C894.121 313.736 892.474 317.543 892.15 322.457H923.254ZM945.048 287.06V347H939.378V287.06H945.048ZM977.247 347.648C973.089 347.648 969.336 346.73 965.988 344.894C962.694 343.004 960.075 340.358 958.131 336.956C956.241 333.5 955.296 329.477 955.296 324.887C955.296 320.297 956.268 316.301 958.212 312.899C960.156 309.443 962.802 306.797 966.15 304.961C969.498 303.071 973.251 302.126 977.409 302.126C981.567 302.126 985.32 303.071 988.668 304.961C992.07 306.797 994.716 309.443 996.606 312.899C998.55 316.301 999.522 320.297 999.522 324.887C999.522 329.423 998.55 333.419 996.606 336.875C994.662 340.331 991.989 343.004 988.587 344.894C985.185 346.73 981.405 347.648 977.247 347.648ZM977.247 342.707C980.163 342.707 982.863 342.059 985.347 340.763C987.831 339.413 989.829 337.415 991.341 334.769C992.907 332.069 993.69 328.775 993.69 324.887C993.69 320.999 992.934 317.732 991.422 315.086C989.91 312.386 987.912 310.388 985.428 309.092C982.944 307.742 980.244 307.067 977.328 307.067C974.412 307.067 971.712 307.742 969.228 309.092C966.744 310.388 964.746 312.386 963.234 315.086C961.776 317.732 961.047 320.999 961.047 324.887C961.047 328.775 961.776 332.069 963.234 334.769C964.746 337.415 966.717 339.413 969.147 340.763C971.631 342.059 974.331 342.707 977.247 342.707ZM1015.45 312.494C1016.85 309.524 1019.06 307.067 1022.09 305.123C1025.17 303.125 1028.81 302.126 1033.02 302.126C1037.02 302.126 1040.61 303.071 1043.8 304.961C1047.04 306.797 1049.55 309.443 1051.33 312.899C1053.17 316.301 1054.08 320.27 1054.08 324.806C1054.08 329.342 1053.17 333.338 1051.33 336.794C1049.55 340.25 1047.04 342.923 1043.8 344.813C1040.61 346.703 1037.02 347.648 1033.02 347.648C1028.87 347.648 1025.25 346.676 1022.17 344.732C1019.09 342.734 1016.85 340.25 1015.45 337.28V367.898H1009.86V302.774H1015.45V312.494ZM1048.33 324.806C1048.33 321.134 1047.6 317.975 1046.15 315.329C1044.74 312.629 1042.8 310.577 1040.31 309.173C1037.83 307.769 1035.02 307.067 1031.89 307.067C1028.87 307.067 1026.08 307.796 1023.55 309.254C1021.06 310.712 1019.09 312.791 1017.63 315.491C1016.18 318.191 1015.45 321.323 1015.45 324.887C1015.45 328.451 1016.18 331.583 1017.63 334.283C1019.09 336.983 1021.06 339.062 1023.55 340.52C1026.08 341.978 1028.87 342.707 1031.89 342.707C1035.02 342.707 1037.83 342.005 1040.31 340.601C1042.8 339.143 1044.74 337.064 1046.15 334.364C1047.6 331.61 1048.33 328.424 1048.33 324.806ZM1104.53 322.619C1104.53 324.563 1104.48 326.048 1104.37 327.074H1067.68C1067.84 330.422 1068.65 333.284 1070.11 335.66C1071.56 338.036 1073.48 339.845 1075.86 341.087C1078.23 342.275 1080.83 342.869 1083.63 342.869C1087.31 342.869 1090.38 341.978 1092.87 340.196C1095.41 338.414 1097.08 336.011 1097.89 332.987H1103.88C1102.8 337.307 1100.48 340.844 1096.92 343.598C1093.41 346.298 1088.98 347.648 1083.63 347.648C1079.48 347.648 1075.75 346.73 1072.46 344.894C1069.16 343.004 1066.57 340.358 1064.68 336.956C1062.84 333.5 1061.93 329.477 1061.93 324.887C1061.93 320.297 1062.84 316.274 1064.68 312.818C1066.52 309.362 1069.08 306.716 1072.37 304.88C1075.67 303.044 1079.42 302.126 1083.63 302.126C1087.85 302.126 1091.52 303.044 1094.65 304.88C1097.84 306.716 1100.27 309.2 1101.94 312.332C1103.67 315.41 1104.53 318.839 1104.53 322.619ZM1098.78 322.457C1098.83 319.163 1098.16 316.355 1096.76 314.033C1095.41 311.711 1093.54 309.956 1091.17 308.768C1088.79 307.58 1086.2 306.986 1083.39 306.986C1079.18 306.986 1075.59 308.336 1072.62 311.036C1069.65 313.736 1068 317.543 1067.68 322.457H1098.78ZM1120.57 310.631C1121.82 307.877 1123.71 305.744 1126.24 304.232C1128.84 302.72 1132 301.964 1135.72 301.964V307.877H1134.18C1130.08 307.877 1126.78 308.984 1124.3 311.198C1121.82 313.412 1120.57 317.111 1120.57 322.295V347H1114.9V302.774H1120.57V310.631Z" fill="#BABABA"/>
<path d="M604.3 170.985C604.3 172.45 604.25 173.841 604.151 175.158C604.003 177.117 602.314 178.545 600.349 178.545H549.082C547.918 178.545 546.992 179.538 547.171 180.688C547.945 185.643 550.068 189.699 553.54 192.855C557.5 196.455 562.36 198.255 568.12 198.255C574.772 198.255 579.855 196.019 583.371 191.546C585.017 189.451 587.357 187.86 590.021 187.86H592.603C597.37 187.86 600.717 192.58 598.014 196.506C595.88 199.605 593.205 202.348 589.99 204.735C584.14 209.055 576.85 211.215 568.12 211.215C561.01 211.215 554.62 209.64 548.95 206.49C543.37 203.25 538.96 198.75 535.72 192.99C532.57 187.14 530.995 180.39 530.995 172.74C530.995 165.09 532.525 158.385 535.585 152.625C538.735 146.775 543.1 142.275 548.68 139.125C554.35 135.975 560.83 134.4 568.12 134.4C575.14 134.4 581.395 135.93 586.885 138.99C592.375 142.05 596.65 146.37 599.71 151.95C602.77 157.44 604.3 163.785 604.3 170.985ZM586.203 166.125C587.32 166.125 588.231 165.208 588.115 164.097C587.621 159.361 585.636 155.492 582.16 152.49C578.2 149.07 573.295 147.36 567.445 147.36C562.135 147.36 557.59 149.07 553.81 152.49C550.533 155.377 548.406 159.177 547.429 163.89C547.185 165.068 548.123 166.125 549.326 166.125H586.203Z" fill="#7C3AED"/>
<path d="M643.61 211.215C636.59 211.215 630.245 209.64 624.575 206.49C618.905 203.25 614.45 198.75 611.21 192.99C607.97 187.14 606.35 180.39 606.35 172.74C606.35 165.18 608.015 158.475 611.345 152.625C614.675 146.775 619.22 142.275 624.98 139.125C630.74 135.975 637.175 134.4 644.285 134.4C651.395 134.4 657.83 135.975 663.59 139.125C669.35 142.275 673.895 146.775 677.225 152.625C680.555 158.475 682.22 165.18 682.22 172.74C682.22 180.3 680.51 187.005 677.09 192.855C673.67 198.705 668.99 203.25 663.05 206.49C657.2 209.64 650.72 211.215 643.61 211.215ZM643.61 197.85C647.57 197.85 651.26 196.905 654.68 195.015C658.19 193.125 661.025 190.29 663.185 186.51C665.345 182.73 666.425 178.14 666.425 172.74C666.425 167.34 665.39 162.795 663.32 159.105C661.25 155.325 658.505 152.49 655.085 150.6C651.665 148.71 647.975 147.765 644.015 147.765C640.055 147.765 636.365 148.71 632.945 150.6C629.615 152.49 626.96 155.325 624.98 159.105C623 162.795 622.01 167.34 622.01 172.74C622.01 180.75 624.035 186.96 628.085 191.37C632.225 195.69 637.4 197.85 643.61 197.85Z" fill="#7C3AED"/>
<path d="M772.995 172.47C772.995 165 774.525 158.385 777.585 152.625C780.735 146.865 784.965 142.41 790.275 139.26C795.675 136.02 801.615 134.4 808.095 134.4C813.945 134.4 819.03 135.57 823.35 137.91C826.756 139.648 829.624 141.734 831.956 144.169C832.618 144.86 833.88 144.413 833.88 143.456V138.615C833.88 136.958 835.223 135.615 836.88 135.615H846.405C848.062 135.615 849.405 136.958 849.405 138.615V207C849.405 208.657 848.062 210 846.405 210H836.88C835.223 210 833.88 208.657 833.88 207V201.951C833.88 200.988 832.601 200.543 831.942 201.245C829.596 203.746 826.686 205.9 823.215 207.705C818.715 210.045 813.585 211.215 807.825 211.215C801.435 211.215 795.585 209.595 790.275 206.355C784.965 203.025 780.735 198.435 777.585 192.585C774.525 186.645 772.995 179.94 772.995 172.47ZM833.88 172.74C833.88 167.61 832.8 163.155 830.64 159.375C828.57 155.595 825.825 152.715 822.405 150.735C818.985 148.755 815.295 147.765 811.335 147.765C807.375 147.765 803.685 148.755 800.265 150.735C796.845 152.625 794.055 155.46 791.895 159.24C789.825 162.93 788.79 167.34 788.79 172.47C788.79 177.6 789.825 182.1 791.895 185.97C794.055 189.84 796.845 192.81 800.265 194.88C803.775 196.86 807.465 197.85 811.335 197.85C815.295 197.85 818.985 196.86 822.405 194.88C825.825 192.9 828.57 190.02 830.64 186.24C832.8 182.37 833.88 177.87 833.88 172.74Z" fill="#D8D8D8"/>
<path d="M899.049 134.4C904.899 134.4 910.119 135.615 914.709 138.045C919.389 140.475 923.034 144.075 925.644 148.845C928.254 153.615 929.559 159.375 929.559 166.125V207C929.559 208.657 928.216 210 926.559 210H917.304C915.647 210 914.304 208.657 914.304 207V168.42C914.304 161.76 912.639 156.675 909.309 153.165C905.979 149.565 901.434 147.765 895.674 147.765C889.914 147.765 885.324 149.565 881.904 153.165C878.574 156.675 876.909 161.76 876.909 168.42V207C876.909 208.657 875.566 210 873.909 210H864.519C862.862 210 861.519 208.657 861.519 207V138.615C861.519 136.958 862.862 135.615 864.519 135.615H873.909C875.566 135.615 876.909 136.958 876.909 138.615V141.333C876.909 142.271 878.124 142.725 878.799 142.073C880.969 139.976 883.534 138.273 886.494 136.965C890.454 135.255 894.639 134.4 899.049 134.4Z" fill="#D8D8D8"/>
<path d="M968.09 211.215C962.24 211.215 956.975 210.18 952.295 208.11C947.705 205.95 944.06 203.07 941.36 199.47C939.294 196.646 937.966 193.585 937.375 190.287C937.075 188.61 938.459 187.185 940.162 187.185H950.216C951.774 187.185 953.024 188.402 953.536 189.873C954.235 191.875 955.531 193.635 957.425 195.15C960.215 197.22 963.68 198.255 967.82 198.255C972.14 198.255 975.47 197.445 977.81 195.825C980.24 194.115 981.455 191.955 981.455 189.345C981.455 186.555 980.105 184.485 977.405 183.135C974.795 181.785 970.61 180.3 964.85 178.68C959.27 177.15 954.725 175.665 951.215 174.225C947.705 172.785 944.645 170.58 942.035 167.61C939.515 164.64 938.255 160.725 938.255 155.865C938.255 151.905 939.425 148.305 941.765 145.065C944.105 141.735 947.435 139.125 951.755 137.235C956.165 135.345 961.205 134.4 966.875 134.4C975.335 134.4 982.13 136.56 987.26 140.88C991.717 144.492 994.403 149.252 995.317 155.161C995.579 156.855 994.194 158.295 992.48 158.295H983.007C981.444 158.295 980.191 157.075 979.736 155.58C979.101 153.488 977.919 151.738 976.19 150.33C973.76 148.35 970.475 147.36 966.335 147.36C962.285 147.36 959.18 148.125 957.02 149.655C954.86 151.185 953.78 153.21 953.78 155.73C953.78 157.71 954.5 159.375 955.94 160.725C957.38 162.075 959.135 163.155 961.205 163.965C963.275 164.685 966.335 165.63 970.385 166.8C975.785 168.24 980.195 169.725 983.615 171.255C987.125 172.695 990.14 174.855 992.66 177.735C995.18 180.615 996.485 184.44 996.575 189.21C996.575 193.44 995.405 197.22 993.065 200.55C990.725 203.88 987.395 206.49 983.075 208.38C978.845 210.27 973.85 211.215 968.09 211.215Z" fill="#D8D8D8"/>
<path d="M1073.28 170.985C1073.28 172.77 1073.21 174.444 1073.06 176.007C1072.92 177.475 1071.66 178.545 1070.18 178.545H1016.98C1016.4 178.545 1015.94 179.041 1016.01 179.619C1016.63 185.063 1018.8 189.475 1022.52 192.855C1026.48 196.455 1031.34 198.255 1037.1 198.255C1044.7 198.255 1050.25 195.336 1053.76 189.498C1054.34 188.519 1055.37 187.86 1056.51 187.86H1067.11C1069.15 187.86 1070.6 189.862 1069.73 191.713C1067.34 196.842 1063.75 201.183 1058.97 204.735C1053.12 209.055 1045.83 211.215 1037.1 211.215C1029.99 211.215 1023.6 209.64 1017.93 206.49C1012.35 203.25 1007.94 198.75 1004.7 192.99C1001.55 187.14 999.974 180.39 999.974 172.74C999.974 165.09 1001.5 158.385 1004.56 152.625C1007.71 146.775 1012.08 142.275 1017.66 139.125C1023.33 135.975 1029.81 134.4 1037.1 134.4C1044.12 134.4 1050.37 135.93 1055.86 138.99C1061.35 142.05 1065.63 146.37 1068.69 151.95C1071.75 157.44 1073.28 163.785 1073.28 170.985ZM1056.2 166.125C1056.76 166.125 1057.21 165.667 1057.18 165.11C1056.87 159.91 1054.86 155.703 1051.14 152.49C1047.18 149.07 1042.27 147.36 1036.42 147.36C1031.11 147.36 1026.57 149.07 1022.79 152.49C1019.26 155.601 1017.06 159.772 1016.2 165.004C1016.1 165.597 1016.57 166.125 1017.17 166.125H1056.2Z" fill="#D8D8D8"/>
<path d="M1117.85 134.4C1123.7 134.4 1128.92 135.615 1133.51 138.045C1138.19 140.475 1141.84 144.075 1144.45 148.845C1147.06 153.615 1148.36 159.375 1148.36 166.125V207C1148.36 208.657 1147.02 210 1145.36 210H1136.11C1134.45 210 1133.11 208.657 1133.11 207V168.42C1133.11 161.76 1131.44 156.675 1128.11 153.165C1124.78 149.565 1120.24 147.765 1114.48 147.765C1108.72 147.765 1104.13 149.565 1100.71 153.165C1097.38 156.675 1095.71 161.76 1095.71 168.42V207C1095.71 208.657 1094.37 210 1092.71 210H1083.32C1081.67 210 1080.32 208.657 1080.32 207V138.615C1080.32 136.958 1081.67 135.615 1083.32 135.615H1092.71C1094.37 135.615 1095.71 136.958 1095.71 138.615V141.333C1095.71 142.271 1096.93 142.725 1097.6 142.073C1099.77 139.976 1102.34 138.273 1105.3 136.965C1109.26 135.255 1113.44 134.4 1117.85 134.4Z" fill="#D8D8D8"/>
<path d="M713.177 258C702.801 258 693.199 255.669 684.372 251.006C677.222 247.161 671.125 241.915 666.08 235.268C664.106 232.667 664.247 229.092 666.151 226.441L677.583 210.519C678.827 208.786 681.434 208.869 682.668 210.608C686.461 215.951 690.513 220.091 694.825 223.028C700.246 226.615 706.131 228.408 712.48 228.408C729.361 228.408 737.801 216.841 737.801 193.706V98.3225C737.801 97.218 736.905 96.3225 735.801 96.3225H686.958C683.092 96.3225 679.958 93.1885 679.958 89.3225V74C679.958 70.134 683.092 67 686.958 67H761C764.866 67 768 70.134 768 74V191.823C768 214.061 763.277 230.65 753.83 241.59C744.538 252.53 730.987 258 713.177 258Z" fill="#D8D8D8"/>
<path d="M489 258C487.895 258 487 257.105 487 256V74C487 70.134 490.134 67 494 67H511.263C515.129 67 518.263 70.134 518.263 74V219.983C518.263 221.087 519.159 221.983 520.263 221.983H579C582.866 221.983 586 225.117 586 228.983V251C586 254.866 582.866 258 579 258H489Z" fill="#7C3AED"/>
</svg>
