<svg width="60" height="60" viewBox="0 0 60 60" fill="none" xmlns="http://www.w3.org/2000/svg">
<circle cx="30" cy="30" r="30" fill="#CC00FF"/>
<path fill-rule="evenodd" clip-rule="evenodd" d="M60 30C60 46.5685 46.5685 60 30 60C13.4315 60 0 46.5685 0 30C0 13.4315 13.4315 0 30 0C46.5685 0 60 13.4315 60 30ZM15.9489 16.478C13.6576 18.6923 11.9334 21.445 10.945 24.5033C9.67536 28.4317 9.68533 32.6617 10.9734 36.5841C12.2615 40.5064 14.7613 43.9188 18.1127 46.3297C21.464 48.7406 25.4941 50.0256 29.6225 49.9996C33.7509 49.9737 37.7645 48.6381 41.0854 46.1853C44.4062 43.7325 46.8629 40.289 48.1016 36.3508C49.3403 32.4125 49.2971 28.1828 47.9782 24.2706C46.9515 21.2249 45.1928 18.4942 42.8739 16.3088C41.7766 15.2747 40.0567 15.5792 39.1859 16.81C38.3151 18.0408 38.6316 19.7292 39.6709 20.8215C41.0739 22.2958 42.1473 24.0658 42.8043 26.0148C43.7539 28.8316 43.785 31.877 42.8931 34.7126C42.0013 37.5481 40.2325 40.0274 37.8415 41.7934C35.4505 43.5595 32.5606 44.521 29.5882 44.5397C26.6158 44.5584 23.7141 43.6332 21.3011 41.8974C18.8881 40.1615 17.0883 37.7046 16.1609 34.8805C15.2334 32.0564 15.2263 29.0108 16.1404 26.1824C16.7729 24.2252 17.824 22.4419 19.2082 20.95C20.2338 19.8448 20.5291 18.1526 19.6428 16.9328C18.7566 15.713 17.0331 15.4302 15.9489 16.478ZM33 24V14C33 12.3431 31.6569 11 30 11C28.3431 11 27 12.3431 27 14V24C27 25.6569 28.3431 27 30 27C31.6569 27 33 25.6569 33 24Z" fill="#171717"/>
<path d="M30 0.5C46.2924 0.5 59.5 13.7076 59.5 30C59.5 46.2924 46.2924 59.5 30 59.5C13.7076 59.5 0.5 46.2924 0.5 30C0.5 13.7076 13.7076 0.5 30 0.5ZM43.2168 15.9453C41.8635 14.6699 39.7948 15.0834 38.7773 16.5215C37.7368 17.9927 38.1464 19.9446 39.3086 21.166C40.6616 22.5878 41.6964 24.2951 42.3301 26.1748C43.2458 28.8912 43.2761 31.828 42.416 34.5625C41.5559 37.2971 39.8498 39.6885 37.5439 41.3916C35.2382 43.0945 32.4513 44.022 29.585 44.04C26.7184 44.058 23.9198 43.1652 21.5928 41.4912C19.2659 39.8172 17.5301 37.448 16.6357 34.7246C15.7413 32.0011 15.7347 29.0637 16.6162 26.3359C17.2262 24.4485 18.2403 22.7287 19.5752 21.29C20.7219 20.054 21.1062 18.0967 20.0469 16.6387C19.0114 15.2139 16.9387 14.8262 15.6016 16.1182C13.2515 18.3893 11.4825 21.2128 10.4688 24.3496C9.16666 28.3787 9.17695 32.7173 10.498 36.7402C11.8191 40.763 14.3832 44.2627 17.8203 46.7354C21.2576 49.2081 25.3917 50.5266 29.626 50.5C33.8601 50.4733 37.9769 49.1035 41.3828 46.5879C44.7887 44.0723 47.3076 40.5401 48.5781 36.501C49.8485 32.4619 49.8047 28.1237 48.4521 24.1113C47.3991 20.9876 45.5951 18.1867 43.2168 15.9453ZM30 10.5C28.067 10.5 26.5 12.067 26.5 14V24C26.5 25.933 28.067 27.5 30 27.5C31.933 27.5 33.5 25.933 33.5 24V14C33.5 12.067 31.933 10.5 30 10.5Z" stroke="#252525" stroke-opacity="0.93"/>
</svg>
