<svg width="349" height="349" viewBox="0 0 349 349" fill="none" xmlns="http://www.w3.org/2000/svg">
<path fill-rule="evenodd" clip-rule="evenodd" d="M349 174.5C349 270.874 270.874 349 174.5 349C78.1263 349 0 270.874 0 174.5C0 78.1263 78.1263 0 174.5 0C270.874 0 349 78.1263 349 174.5ZM252.3 98.1509C264.238 110.159 273.273 124.845 278.591 141.089C285.727 162.888 285.804 186.382 278.812 208.227C271.82 230.072 258.116 249.154 239.649 262.758C221.182 276.362 198.894 283.794 175.959 283.996C153.023 284.198 130.608 277.159 111.905 263.882C93.2015 250.605 79.1632 231.766 71.7882 210.048C64.4132 188.329 64.0775 164.837 70.8287 142.917C75.8597 126.581 84.6353 111.739 96.3604 99.5226C103.03 92.5735 114.09 94.193 119.888 101.885C125.685 109.576 123.944 120.412 117.816 127.843C111.688 135.274 107.031 143.872 104.164 153.183C99.5727 168.089 99.801 184.064 104.816 198.832C109.831 213.601 119.377 226.411 132.095 235.44C144.813 244.468 160.056 249.254 175.652 249.117C191.248 248.98 206.404 243.926 218.961 234.676C231.519 225.425 240.838 212.449 245.592 197.594C250.347 182.739 250.294 166.764 245.442 151.941C242.411 142.681 237.603 134.167 231.346 126.845C225.088 119.523 223.156 108.719 228.818 100.926C234.479 93.1341 245.509 91.3203 252.3 98.1509ZM176 58H174C166.82 58 161 63.8203 161 71V131C161 138.18 166.82 144 174 144H176C183.18 144 189 138.18 189 131V71C189 63.8203 183.18 58 176 58Z" fill="#171717"/>
</svg>
